<?xml version="1.0" encoding="utf-8"?>
<!-- Generator: Adobe Illustrator 21.1.0, SVG Export Plug-In . SVG Version: 6.00 Build 0)  -->
<svg version="1.1" xmlns="http://www.w3.org/2000/svg" xmlns:xlink="http://www.w3.org/1999/xlink" x="0px" y="0px" width="20px"
	 height="16.6px" viewBox="0 0 20 16.6" style="enable-background:new 0 0 20 16.6;" xml:space="preserve">
<style type="text/css">
	.st0{fill:#CCCCCC;}
</style>
<path class="st0" d="M13.6,13.5c-1.1,0.8-2.4,1.2-3.7,1.1c-0.2,0-0.3,0-0.5,0c-0.1,0-0.1,0-0.2,0c-0.1,0-0.3,0-0.4-0.1
	c-0.1,0-0.2,0-0.2-0.1c-0.1,0-0.3-0.1-0.4-0.1c-0.1,0-0.1,0-0.2-0.1c-0.1,0-0.3-0.1-0.4-0.2c0,0-0.1,0-0.1,0C7.3,14,7.2,14,7,13.9
	c0,0,0,0,0,0c-0.5-0.3-1-0.6-1.4-1.1c0,0,0,0,0,0c-0.1-0.1-0.3-0.3-0.4-0.4c0,0,0-0.1-0.1-0.1c-0.9-1.1-1.4-2.4-1.4-3.9h1.7l-2.7-4
	L0,8.3h1.7c0,1.8,0.5,3.4,1.5,4.7c0,0,0,0,0,0.1c0.1,0.1,0.2,0.3,0.3,0.4c0,0,0.1,0.1,0.1,0.1c0.2,0.2,0.3,0.4,0.5,0.5c0,0,0,0,0,0
	c0.6,0.6,1.2,1,1.9,1.4c0,0,0,0,0.1,0c0.2,0.1,0.4,0.2,0.6,0.3c0.1,0,0.1,0,0.2,0.1c0.2,0.1,0.4,0.1,0.5,0.2c0.1,0,0.2,0.1,0.3,0.1
	c0.2,0,0.3,0.1,0.5,0.1c0.1,0,0.2,0.1,0.3,0.1c0,0,0.1,0,0.1,0c0.2,0,0.3,0,0.5,0.1c0.1,0,0.1,0,0.2,0c0.3,0,0.6,0,0.8,0
	c1.7,0,3.3-0.5,4.8-1.5c0.5-0.3,0.6-0.9,0.2-1.4C14.7,13.3,14.1,13.2,13.6,13.5z M18.3,8.3c0-1.7-0.5-3.4-1.5-4.7c0,0,0,0,0-0.1
	c-0.1-0.2-0.2-0.3-0.4-0.5c0,0,0,0,0-0.1c-0.8-1-1.9-1.8-3.1-2.3c0,0-0.1,0-0.1,0c-0.2-0.1-0.4-0.1-0.6-0.2c-0.1,0-0.1,0-0.2-0.1
	c-0.2-0.1-0.3-0.1-0.5-0.1c-0.1,0-0.2,0-0.3-0.1c0,0-0.1,0-0.1,0c-0.1,0-0.3,0-0.4-0.1c-0.1,0-0.2,0-0.3,0c-0.2,0-0.4,0-0.7,0
	c0,0-0.1,0-0.1,0c0,0,0,0,0,0C8.3,0,6.6,0.5,5.2,1.5C4.8,1.8,4.7,2.4,5,2.9c0.3,0.4,0.9,0.6,1.4,0.2C7.5,2.4,8.7,2,10,2
	c0.2,0,0.4,0,0.6,0c0.1,0,0.1,0,0.2,0c0.2,0,0.3,0,0.4,0.1c0.1,0,0.1,0,0.2,0c0.1,0,0.3,0.1,0.4,0.1c0,0,0.1,0,0.1,0
	c0.2,0.1,0.3,0.1,0.5,0.2c0,0,0,0,0,0c0.9,0.4,1.7,1,2.4,1.8c0,0,0,0,0,0c0.9,1.1,1.4,2.5,1.4,4h-1.7l2.7,4l2.7-4L18.3,8.3L18.3,8.3
	z"/>
</svg>
