<?xml version="1.0" encoding="UTF-8"?>
<svg width="27px" height="23px" viewBox="0 0 27 23" version="1.1" xmlns="http://www.w3.org/2000/svg" xmlns:xlink="http://www.w3.org/1999/xlink">
    <!-- Generator: Sketch 48.1 (47250) - http://www.bohemiancoding.com/sketch -->
    <title>wechat_s</title>
    <desc>Created with Sketch.</desc>
    <defs></defs>
    <g id="支付页面_效果图" stroke="none" stroke-width="1" fill="none" fill-rule="evenodd" transform="translate(-31.000000, -339.000000)">
        <path d="M50.0962801,345.332471 C50.0590297,345.332106 50.0217276,345.331923 49.984375,345.331923 C44.7520251,345.331923 40.510368,348.920207 40.510368,353.346581 C40.510368,354.24712 40.6859355,355.112969 41.0096943,355.920969 C40.9078918,355.923725 40.8056942,355.925113 40.703125,355.925113 C39.506113,355.925113 38.3597259,355.736074 37.3010713,355.390359 C36.7686556,355.216493 34.8232684,357.272624 34.3399524,357.02362 C34.0520053,356.87527 35.2087711,354.444692 34.9409253,354.272004 C32.5502298,352.730651 31,350.254495 31,347.462556 C31,342.788815 35.3442368,339 40.703125,339 C45.2184249,339 49.0133795,341.689845 50.0962801,345.332471 Z M37.328125,345.812308 C38.0271104,345.812308 38.59375,345.240438 38.59375,344.535 C38.59375,343.829562 38.0271104,343.257692 37.328125,343.257692 C36.6291396,343.257692 36.0625,343.829562 36.0625,344.535 C36.0625,345.240438 36.6291396,345.812308 37.328125,345.812308 Z M44.078125,345.812308 C44.7771104,345.812308 45.34375,345.240438 45.34375,344.535 C45.34375,343.829562 44.7771104,343.257692 44.078125,343.257692 C43.3791396,343.257692 42.8125,343.829562 42.8125,344.535 C42.8125,345.240438 43.3791396,345.812308 44.078125,345.812308 Z M49.984375,360.225688 C45.5574673,360.225688 41.96875,357.189766 41.96875,353.444767 C41.96875,349.699768 45.5574673,346.663846 49.984375,346.663846 C54.4112827,346.663846 58,349.699768 58,353.444767 C58,355.703539 56.6944883,357.704362 54.6869662,358.936695 C54.308859,359.168799 55.5056322,361.125824 55.081751,361.299994 C54.8204952,361.407342 52.9515275,359.750857 52.675359,359.834104 C51.8342586,360.087639 50.9283738,360.225688 49.984375,360.225688 Z M47.03125,351.773077 C47.4972403,351.773077 47.875,351.39183 47.875,350.921538 C47.875,350.451247 47.4972403,350.07 47.03125,350.07 C46.5652597,350.07 46.1875,350.451247 46.1875,350.921538 C46.1875,351.39183 46.5652597,351.773077 47.03125,351.773077 Z M52.09375,351.773077 C52.5597403,351.773077 52.9375,351.39183 52.9375,350.921538 C52.9375,350.451247 52.5597403,350.07 52.09375,350.07 C51.6277597,350.07 51.25,350.451247 51.25,350.921538 C51.25,351.39183 51.6277597,351.773077 52.09375,351.773077 Z" id="wechat_s" fill="#36EA9F"></path>
    </g>
</svg>