<?xml version="1.0" encoding="UTF-8"?>
<svg width="16px" height="16px" viewBox="0 0 16 16" version="1.1" xmlns="http://www.w3.org/2000/svg" xmlns:xlink="http://www.w3.org/1999/xlink">
    <!-- Generator: Sketch 48.2 (47327) - http://www.bohemiancoding.com/sketch -->
    <title>下载</title>
    <desc>Created with Sketch.</desc>
    <defs></defs>
    <g id="我的_效果图" stroke="none" stroke-width="1" fill="none" fill-rule="evenodd" transform="translate(-26.000000, -397.000000)">
        <g id="内容" transform="translate(0.000000, 65.000000)" fill="#424242" fill-rule="nonzero">
            <g id="2" transform="translate(0.000000, 225.000000)">
                <g id="下载" transform="translate(26.000000, 107.000000)">
                    <path d="M13.968254,9.83619048 L13.968254,14.2857143 L1.26984127,14.2857143 L1.26984127,9.83619048 C1.26984127,9.48063492 0.985396825,9.20634921 0.64,9.20634921 C0.284444444,9.20634921 0.0101587302,9.49079365 0.0101587302,9.83619048 L0.0101587302,14.9155556 C0.0101587302,15.2711111 0.294603175,15.5453968 0.64,15.5453968 L14.608254,15.5453968 C14.9638095,15.5453968 15.2380952,15.2609524 15.2380952,14.9155556 L15.2380952,9.83619048 C15.2380952,9.48063492 14.9536508,9.20634921 14.608254,9.20634921 C14.2526984,9.20634921 13.968254,9.49079365 13.968254,9.83619048 Z" id="Shape"></path>
                    <path d="M11.4285714,7.24571429 L8.06603175,10.608254 C7.82222222,10.8520635 7.41587302,10.8520635 7.17206349,10.608254 L3.80952381,7.24571429 C3.56571429,7.00190476 3.56571429,6.59555556 3.80952381,6.35174603 C4.05333333,6.10793651 4.45968254,6.10793651 4.70349206,6.35174603 L6.97904762,8.62730159 L6.97904762,0.632380952 C6.97904762,0.276825397 7.26349206,0.00253968254 7.60888889,0.00253968254 C7.95428571,0.00253968254 8.23873016,0.286984127 8.23873016,0.632380952 L8.23873016,8.62730159 L10.5142857,6.35174603 C10.7580952,6.10793651 11.1644444,6.10793651 11.408254,6.35174603 C11.672381,6.59555556 11.672381,7.00190476 11.4285714,7.24571429 Z" id="Shape"></path>
                </g>
            </g>
        </g>
    </g>
</svg>