<?xml version="1.0" encoding="UTF-8"?>
<svg width="18px" height="17px" viewBox="0 0 18 17" version="1.1" xmlns="http://www.w3.org/2000/svg" xmlns:xlink="http://www.w3.org/1999/xlink">
    <!-- Generator: Sketch 48.2 (47327) - http://www.bohemiancoding.com/sketch -->
    <title>充值</title>
    <desc>Created with Sketch.</desc>
    <defs></defs>
    <g id="我的_效果图" stroke="none" stroke-width="1" fill="none" fill-rule="evenodd" transform="translate(-24.000000, -305.000000)">
        <g id="内容" transform="translate(0.000000, 65.000000)" fill="#424242" fill-rule="nonzero">
            <g id="2" transform="translate(0.000000, 225.000000)">
                <g id="充值" transform="translate(24.000000, 15.000000)">
                    <path d="M7.1553719,9.05950413 C6.85785124,9.05950413 6.67933884,9.29752066 6.67933884,9.53553719 L6.67933884,9.65454545 C6.67933884,9.95206612 6.91735537,10.1305785 7.1553719,10.1305785 L9.1785124,10.1305785 L9.1785124,11.4991736 C9.1785124,11.7966942 9.41652893,11.9752066 9.65454545,11.9752066 L9.77355372,11.9752066 C10.0710744,11.9752066 10.2495868,11.7371901 10.2495868,11.4991736 L10.2495868,10.1900826 L12.0347107,10.1900826 C12.3322314,10.1900826 12.5107438,9.95206612 12.5107438,9.71404959 L12.5107438,9.59504132 C12.5107438,9.29752066 12.2727273,9.11900826 12.0347107,9.11900826 L10.2495868,9.11900826 L10.2495868,7.98842975 L12.0347107,7.98842975 C12.3322314,7.98842975 12.5107438,7.75041322 12.5107438,7.51239669 L12.5107438,7.39338843 C12.5107438,7.09586777 12.2727273,6.91735537 12.0347107,6.91735537 L10.4280992,6.91735537 L11.4991736,5.84628099 C11.677686,5.6677686 11.677686,5.3107438 11.4991736,5.1322314 L11.4396694,5.07272727 C11.261157,4.89421488 10.9041322,4.89421488 10.7256198,5.07272727 L9.65454545,6.02479339 L8.58347107,4.95371901 C8.40495868,4.77520661 8.04793388,4.77520661 7.86942149,4.95371901 L7.80991736,5.01322314 C7.63140496,5.19173554 7.63140496,5.54876033 7.80991736,5.72727273 L8.88099174,6.79834711 L7.1553719,6.79834711 C6.85785124,6.79834711 6.67933884,7.03636364 6.67933884,7.27438017 L6.67933884,7.39338843 C6.67933884,7.69090909 6.91735537,7.86942149 7.1553719,7.86942149 L9.1785124,7.86942149 L9.1785124,9 L7.1553719,9 L7.1553719,9.05950413 Z M7.21487603,11.9752066 C7.27438017,11.8561983 7.27438017,11.677686 7.21487603,11.4991736 C7.1553719,11.4396694 7.1553719,11.3801653 7.09586777,11.3206612 L5.1322314,9.35702479 C4.89421488,9.11900826 4.53719008,9.11900826 4.29917355,9.35702479 C4.06115702,9.59504132 4.06115702,9.95206612 4.29917355,10.1900826 L5.25123967,11.1421488 L0.609917355,11.1421488 C0.252892562,11.1421488 0.0148760331,11.3801653 0.0148760331,11.7371901 C0.0148760331,12.0942149 0.252892562,12.3322314 0.609917355,12.3322314 L5.19173554,12.3322314 L4.23966942,13.3438017 C4.00165289,13.5818182 4.00165289,13.938843 4.23966942,14.1768595 C4.47768595,14.414876 4.83471074,14.414876 5.07272727,14.1768595 L7.03636364,12.2132231 C7.1553719,12.153719 7.1553719,12.0942149 7.21487603,11.9752066 Z" id="Shape"></path>
                    <path d="M9.59504132,0.0148760331 C5.01322314,0.0148760331 1.20495868,3.76363636 1.20495868,8.40495868 C1.20495868,8.76198347 1.44297521,9 1.8,9 C2.15702479,9 2.39504132,8.76198347 2.39504132,8.40495868 C2.39504132,4.47768595 5.6677686,1.20495868 9.59504132,1.20495868 C13.522314,1.20495868 16.7950413,4.41818182 16.7950413,8.40495868 C16.7950413,12.3322314 13.5818182,15.6049587 9.59504132,15.6049587 C8.88099174,15.6049587 8.16694215,15.4859504 7.45289256,15.307438 C7.1553719,15.1884298 6.79834711,15.3669421 6.67933884,15.7239669 C6.56033058,16.0214876 6.73884298,16.3785124 7.09586777,16.4975207 C7.92892562,16.7355372 8.76198347,16.8545455 9.59504132,16.8545455 C14.2363636,16.8545455 17.985124,13.1057851 17.985124,8.46446281 C17.985124,3.8231405 14.2363636,0.0148760331 9.59504132,0.0148760331 Z" id="Shape"></path>
                </g>
            </g>
        </g>
    </g>
</svg>