<?xml version="1.0" encoding="UTF-8"?>
<svg width="14px" height="20px" viewBox="0 0 14 20" version="1.1" xmlns="http://www.w3.org/2000/svg" xmlns:xlink="http://www.w3.org/1999/xlink">
    <!-- Generator: Sketch 48.2 (47327) - http://www.bohemiancoding.com/sketch -->
    <title>积分</title>
    <desc>Created with Sketch.</desc>
    <defs></defs>
    <g id="我的_效果图" stroke="none" stroke-width="1" fill="none" fill-rule="evenodd" transform="translate(-27.000000, -195.000000)">
        <g id="内容" transform="translate(0.000000, 65.000000)" fill="#424242" fill-rule="nonzero">
            <g id="1" transform="translate(0.000000, 118.000000)">
                <g id="积分" transform="translate(27.000000, 12.000000)">
                    <path d="M7.93723772,6.97370483 C7.89285609,6.74407813 7.83882627,6.46042162 7.83882627,6.46042162 L9.57549876,6.46042162 L12.5587162,0.658005903 C12.6223942,0.511353558 12.6050274,0.343475227 12.5143345,0.212259972 C12.421712,0.0791150866 12.2673411,6.85611402e-17 12.1013924,6.85611402e-17 L10.1640378,0 L8.22668312,0 L6.91260095,0 L6.28932849,0 L4.97524632,0 L3.03596204,0 L1.0986074,0 C0.932658704,0 0.778287813,0.0791150866 0.687594918,0.212259972 C0.594972391,0.343475227 0.5795353,0.511353558 0.643213296,0.658005903 L3.56468233,6.46042164 L5.30135482,6.46042164 C5.30135482,6.46042164 5.24346574,6.75758559 5.19908412,6.99107157 C2.23709272,7.62206257 0.0160815752,10.2058453 0.0160815752,13.3009816 C0.0160815752,16.8688787 2.96456553,19.7614032 6.60192956,19.7614032 C10.2392936,19.7614032 13.1877775,16.8688787 13.1877775,13.3009816 C13.1858479,10.1826897 10.9339626,7.57961056 7.93723772,6.97370483 Z M4.53528928,5.48788504 L2.54969375,1.5456385 C2.50724175,1.44529743 2.51881956,1.3314489 2.58056793,1.24268563 C2.64231629,1.15199274 2.74844626,1.09796292 2.86036516,1.09796292 L4.17830662,1.09796292 L5.49624807,1.09796292 L6.38773993,1.09796294 L6.81225988,1.09796294 L7.70568139,1.09796294 L9.02362285,1.09796294 L10.3415643,1.09796294 C10.4534832,1.09796294 10.5596132,1.15199276 10.6213615,1.24268565 C10.6831099,1.33337855 10.6946877,1.44722708 10.6522357,1.54563852 L8.62225854,5.48788504 L4.53528928,5.48788504 Z M6.5999999,18.6190587 C3.60520469,18.6190587 1.17579284,16.2378877 1.17579284,13.299052 C1.17579284,10.3602162 3.60520469,7.97904524 6.5999999,7.97904524 C9.59672475,7.97904524 12.024207,10.3602162 12.024207,13.299052 C12.024207,16.2378877 9.59672475,18.6190587 6.5999999,18.6190587 Z" id="Shape"></path>
                    <path d="M6.5999999,9.45714648 C4.4774002,9.45714648 2.75809444,11.1764522 2.75809444,13.299052 C2.75809444,15.4216517 4.4774002,17.1409574 6.5999999,17.1409574 C8.72259961,17.1409574 10.4419054,15.4216516 10.4419054,13.2990519 C10.4419054,11.1764522 8.72259961,9.45714648 6.5999999,9.45714648 Z M6.5999999,16.0449241 C5.08523557,16.0449241 3.85605737,14.8157459 3.85605737,13.3009816 C3.85605737,11.7862172 5.08523557,10.5551094 6.5999999,10.5551094 C8.11669387,10.5551094 9.34394244,11.7842876 9.34394244,13.299052 C9.34394244,14.8138163 8.11669387,16.0449241 6.5999999,16.0449241 Z" id="Shape"></path>
                </g>
            </g>
        </g>
    </g>
</svg>