<?xml version="1.0" encoding="UTF-8"?>
<svg width="16px" height="17px" viewBox="0 0 16 17" version="1.1" xmlns="http://www.w3.org/2000/svg" xmlns:xlink="http://www.w3.org/1999/xlink">
    <!-- Generator: Sketch 48.2 (47327) - http://www.bohemiancoding.com/sketch -->
    <title>我的订单</title>
    <desc>Created with Sketch.</desc>
    <defs></defs>
    <g id="我的_效果图" stroke="none" stroke-width="1" fill="none" fill-rule="evenodd" transform="translate(-25.000000, -240.000000)">
        <g id="内容" transform="translate(0.000000, 65.000000)" fill="#424242" fill-rule="nonzero" stroke="#424242">
            <g id="1" transform="translate(0.000000, 118.000000)">
                <g id="我的订单" transform="translate(26.000000, 58.000000)">
                    <path d="M13.112037,0.405945412 L11.3654483,0.405945412 L11.3654483,1.27923976 L12.6753899,1.27923976 C12.9373782,1.27923976 13.112037,1.45389863 13.112037,1.71588694 L13.112037,14.378655 C13.112037,14.6406433 12.9373782,14.8153021 12.6753899,14.8153021 L1.32256336,14.8153021 C1.06057505,14.8153021 0.885916193,14.6406433 0.885916178,14.378655 L0.885916178,1.71588694 C0.885916178,1.45389863 1.06057505,1.27923978 1.32256336,1.27923976 L2.63250487,1.27923976 L2.63250487,0.405945412 L0.885916178,0.405945412 C0.405604285,0.405945412 0.0126218289,0.798927868 0.0126218289,1.27923976 L0.0126218289,14.8153021 C0.0126218289,15.295614 0.405604285,15.6885965 0.885916178,15.6885965 L13.112037,15.6885965 C13.5923489,15.6885965 13.9853314,15.295614 13.9853314,14.8153021 L13.9853314,1.27923976 C13.9853314,0.798927868 13.5923489,0.405945412 13.112037,0.405945412 Z" id="Shape" stroke-width="0.3"></path>
                    <path d="M9.18221248,0.0129629561 L4.81574074,0.0129629561 C4.33542885,0.0129629561 3.94244639,0.405945412 3.94244639,0.886257305 L3.94244639,1.75955165 C3.94244639,2.23986355 4.33542885,2.632846 4.81574074,2.632846 L9.18221248,2.632846 C9.66252438,2.632846 10.0555068,2.23986355 10.0555068,1.75955165 L10.0555068,0.886257305 C10.0555068,0.405945412 9.66252436,0.0129629561 9.18221248,0.0129629561 Z M9.18221248,1.75955165 L4.81574074,1.75955165 L4.81574074,0.886257305 L9.18221248,0.886257305 L9.18221248,1.75955165 Z M3.06915204,5.25272905 L10.9288012,5.25272905 L10.9288012,6.1260234 L3.06915204,6.1260234 L3.06915204,5.25272905 Z M3.06915204,8.13460039 L10.9288012,8.13460039 L10.9288012,9.00789474 L3.06915204,9.00789474 L3.06915204,8.13460039 Z M3.06915204,10.972807 L7.43562379,10.972807 L7.43562379,11.8461014 L3.06915204,11.8461014 L3.06915204,10.972807 Z" id="Shape" stroke-width="0.2"></path>
                </g>
            </g>
        </g>
    </g>
</svg>