<?xml version="1.0" encoding="UTF-8"?>
<svg width="49px" height="67px" viewBox="0 0 49 67" version="1.1" xmlns="http://www.w3.org/2000/svg" xmlns:xlink="http://www.w3.org/1999/xlink">
    <!-- Generator: Sketch 48.2 (47327) - http://www.bohemiancoding.com/sketch -->
    <title>投资理财</title>
    <desc>Created with Sketch.</desc>
    <defs></defs>
    <g id="首页_效果图" stroke="none" stroke-width="1" fill="none" fill-rule="evenodd" transform="translate(-293.000000, -204.000000)">
        <g id="内容" transform="translate(0.000000, 64.000000)">
            <g id="分类" transform="translate(0.000000, 120.000000)">
                <g id="投资理财" transform="translate(293.000000, 20.000000)">
                    <text font-family="PingFangSC-Regular, PingFang SC" font-size="12" font-weight="normal" fill="#333333">
                        <tspan x="1" y="65">投资理财</tspan>
                    </text>
                    <circle id="Oval" fill="#FF8C47" cx="22" cy="22" r="22"></circle>
                    <g id="小猪1" transform="translate(9.000000, 8.000000)" fill="#FFFFFF" fill-rule="nonzero">
                        <path d="M19.9376604,27.4857143 L17.4542501,27.4857143 C16.5107904,27.4857143 15.7435219,26.7370247 15.7435219,25.8173046 L15.7435219,25.5403042 C14.7439567,25.6625393 13.7133857,25.6832404 12.7207106,25.6033933 L12.3146834,26.495019 C12.0366162,27.0983081 11.423392,27.4857143 10.7511093,27.4857143 L8.25687165,27.4857143 C7.31341197,27.4857143 6.54614351,26.7370247 6.54614351,25.8173046 L6.54614351,23.6323533 C4.62378904,22.4430261 3.16307528,20.7972891 2.38399512,18.9415838 L0.856348363,18.1795864 C0.32728256,17.9144152 0,17.3904804 0,16.8113426 L0,13.8688299 C0,13.0220566 0.703780569,12.3334987 1.56849557,12.3334987 L2.45191244,12.336456 C2.96719793,11.1767018 3.75169179,10.0958089 4.7527335,9.1657383 L3.8890028,7.47317735 C3.66162756,7.02366787 3.67147064,6.49529706 3.91361052,6.05663101 C4.16313272,5.60514998 4.62378909,5.30695564 5.14596473,5.25914598 C5.55986644,5.2202082 5.97967401,5.2 6.39259141,5.2 C8.06197857,5.2 9.52269236,5.51150218 10.7402819,6.12711331 C11.7324649,5.91566642 12.7654966,5.80871076 13.8157538,5.80871076 C16.2932582,5.80871076 18.874115,6.43171512 20.7196934,7.47514887 C21.4899148,7.89607112 22.2109208,8.39831913 22.8531821,8.96316328 C24.6485607,10.5403896 25.7544313,12.7011896 25.9650733,15.0478065 C26.0945099,16.4983618 25.8627052,17.9696181 25.2942671,19.3028672 C24.4300442,21.3266457 23.3197443,23.287828 22.2458637,25.1849354 C21.9756711,25.6625393 21.7054784,26.1386645 21.4406994,26.6147896 C21.1399931,27.1525252 20.5641727,27.4857143 19.9376604,27.4857143 Z M17.2204768,23.7935262 L17.2204768,25.8173046 C17.2204768,25.9203172 17.3277664,26.0070647 17.4547422,26.0070647 L19.9381525,26.0070647 C20.0296932,26.0070647 20.1133594,25.9627052 20.1522396,25.8937015 C20.418495,25.4160977 20.689672,24.9365223 20.9618333,24.4559612 C22.0160277,22.5948342 23.105165,20.6701253 23.9369057,18.7227437 C24.4098659,17.6137565 24.6027904,16.3889417 24.4945164,15.180885 C24.3178331,13.2147739 23.389138,11.4014565 21.8792088,10.0751078 C21.318153,9.58222462 20.6872113,9.14257281 20.0031169,8.76896733 C18.3598139,7.83988249 16.050134,7.28834616 13.8157538,7.28834616 C12.7822299,7.28834616 11.7688843,7.40269507 10.8037698,7.62892847 L10.5261948,7.69398906 L10.2771648,7.55548887 C8.975909,6.83144344 7.44678576,6.6796354 6.39259138,6.6796354 C6.02593648,6.6796354 5.65239142,6.6973792 5.28278358,6.73188101 C5.23504463,6.73631696 5.21486629,6.75652519 5.20600751,6.77279033 L6.59831185,9.53145765 L6.14454564,9.90999195 C4.97961655,10.8799861 4.1134251,12.0653702 3.63898842,13.3370089 L3.45885995,13.8195416 L1.57243277,13.8126412 C1.5089449,13.8121483 1.4764627,13.8501003 1.4764627,13.8693228 L1.4764627,16.8118355 C1.4764627,16.8271149 1.49221165,16.8453516 1.51632721,16.8571808 L3.5533536,17.8725202 L3.65572169,18.1431131 C4.32603576,19.9096065 5.74442429,21.4819039 7.65053764,22.5696972 L8.0230984,22.7826227 L8.0230984,25.8177975 C8.0230984,25.9208101 8.13038803,26.0075575 8.25736382,26.0075575 L10.7516015,26.0075575 C10.8485559,26.0075575 10.9376358,25.9558048 10.9730709,25.878915 L11.8200684,24.0182809 L12.35504,24.0818628 C13.647437,24.2356424 15.0431865,24.1927616 16.3488717,23.9532203 L17.2204768,23.7935262 Z" id="Shape" stroke="#FFFFFF" stroke-width="0.4"></path>
                        <path d="M6.68571429,14.4857143 C6.68571429,15.1011173 7.18459699,15.6 7.8,15.6 C8.41540301,15.6 8.91428571,15.1011173 8.91428571,14.4857143 C8.91428571,13.8703113 8.41540301,13.3714286 7.8,13.3714286 C7.18459699,13.3714286 6.68571429,13.8703113 6.68571429,14.4857143 Z" id="Shape"></path>
                        <path d="M22.7350498,7.42857143 C22.6475292,7.42857143 22.5590252,7.41326703 22.4719962,7.38122345 C22.0914289,7.2401361 21.9006536,6.82500444 22.0461935,6.45482947 C22.2010756,6.06026312 22.2846627,5.64369669 22.2949882,5.21756502 C22.342682,3.17825476 20.6758563,1.48185854 18.5797862,1.43546711 C16.8288817,1.38764089 15.2771113,2.52064417 14.8213156,4.16873589 C14.7156025,4.55134571 14.309959,4.77660722 13.9175913,4.67521561 C13.5242401,4.57238924 13.2911795,4.17877939 13.3968926,3.7961696 C14.0296964,1.50768471 16.1542845,-0.0485806525 18.6137127,0.00115861446 C21.5230365,0.0652457614 23.8359414,2.42020909 23.7700551,5.25008684 C23.7562879,5.84121899 23.6397576,6.41848153 23.4248895,6.96657007 C23.311801,7.25304919 23.03203,7.42857143 22.7350498,7.42857143 Z" id="Shape" stroke="#FFFFFF" stroke-width="0.4"></path>
                    </g>
                </g>
            </g>
        </g>
    </g>
</svg>