<?xml version="1.0" encoding="UTF-8"?>
<svg width="73px" height="17px" viewBox="0 0 73 17" version="1.1" xmlns="http://www.w3.org/2000/svg" xmlns:xlink="http://www.w3.org/1999/xlink">
    <!-- Generator: Sketch 48.2 (47327) - http://www.bohemiancoding.com/sketch -->
    <title>换一批</title>
    <desc>Created with Sketch.</desc>
    <defs></defs>
    <g id="首页_效果图" stroke="none" stroke-width="1" fill="none" fill-rule="evenodd" transform="translate(-151.000000, -919.000000)">
        <g id="内容" transform="translate(0.000000, 64.000000)" fill="#CCCCCC">
            <g id="热门推荐" transform="translate(0.000000, 420.000000)">
                <g id="换一批" transform="translate(151.000000, 433.000000)">
                    <text font-family="PingFangSC-Regular, PingFang SC" font-size="14" font-weight="normal" letter-spacing="-0.200000003">
                        <tspan x="32" y="15">换一批</tspan>
                    </text>
                    <g id="刷新" transform="translate(0.000000, 2.000000)" fill-rule="nonzero">
                        <path d="M13.6340426,13.506383 C12.5333333,14.2780142 11.2453901,14.6638298 9.93191489,14.6468085 C9.75886525,14.6439716 9.5858156,14.6326241 9.41276596,14.6184397 C9.34468085,14.612766 9.27375887,14.5985816 9.20567376,14.5900709 C9.06950355,14.5730496 8.93617021,14.5560284 8.80567376,14.5276596 C8.72340426,14.5134752 8.64397163,14.4907801 8.56453901,14.4737589 C8.43687943,14.4453901 8.30921986,14.4170213 8.18156028,14.3801418 C8.12198582,14.3574468 8.06524823,14.3404255 8.00567376,14.3148936 C7.85815603,14.2695035 7.71631206,14.2184397 7.57446809,14.1588652 C7.54326241,14.1446809 7.51205674,14.1333333 7.48085106,14.1219858 C7.31631206,14.0453901 7.15460993,13.9716312 6.99858156,13.8893617 C6.9929078,13.8836879 6.98439716,13.8836879 6.9787234,13.8780142 C6.44822695,13.5858156 5.96312057,13.2283688 5.53758865,12.8 C5.53191489,12.7943262 5.52624113,12.7858156 5.51489362,12.777305 C5.38439716,12.6439716 5.25673759,12.5106383 5.13758865,12.3631206 C5.11205674,12.3319149 5.0893617,12.3035461 5.06382979,12.2666667 C4.20141844,11.1858156 3.67943262,9.81843972 3.67943262,8.32907801 L5.34468085,8.32907801 L2.68368794,4.33758865 L0.0226950355,8.32907801 L1.68510638,8.32907801 C1.68510638,10.0794326 2.23262411,11.7021277 3.15744681,13.0439716 C3.16879433,13.0638298 3.17446809,13.0865248 3.18865248,13.1007092 C3.28510638,13.2397163 3.39007092,13.364539 3.49503546,13.4921986 C3.53475177,13.5404255 3.56879433,13.5886525 3.60851064,13.6397163 C3.75886525,13.8212766 3.92340426,13.9943262 4.08794326,14.164539 C4.10496454,14.1815603 4.11914894,14.1957447 4.13333333,14.212766 C4.6893617,14.7716312 5.31914894,15.2397163 6.00283688,15.6170213 C6.02269504,15.6255319 6.03687943,15.6340426 6.05957447,15.6453901 C6.25815603,15.7531915 6.45957447,15.8496454 6.66382979,15.9375887 C6.71489362,15.9602837 6.76595745,15.9829787 6.8141844,16.0056738 C6.99007092,16.0794326 7.17163121,16.141844 7.35319149,16.2042553 C7.44113475,16.2326241 7.52340426,16.2609929 7.61134752,16.2893617 C7.77021277,16.3347518 7.93191489,16.3744681 8.0964539,16.4113475 C8.2070922,16.4368794 8.30921986,16.4652482 8.42269504,16.4851064 C8.46808511,16.4964539 8.5106383,16.5106383 8.55602837,16.5134752 C8.71205674,16.541844 8.86524823,16.5560284 9.01843972,16.5758865 C9.0751773,16.5843972 9.13191489,16.5957447 9.1858156,16.6014184 C9.46382979,16.6269504 9.73900709,16.6439716 10.0170213,16.6439716 C11.7049645,16.6439716 13.3588652,16.1276596 14.7744681,15.1347518 C15.2255319,14.8170213 15.3361702,14.1929078 15.0212766,13.7446809 C14.706383,13.2992908 14.0851064,13.1886525 13.6340426,13.506383 Z M18.3234043,8.32624113 C18.3234043,6.58156028 17.7815603,4.96170213 16.8595745,3.62269504 C16.8453901,3.6 16.8368794,3.57730496 16.8255319,3.55744681 C16.706383,3.3929078 16.5843972,3.23971631 16.4567376,3.08368794 C16.4425532,3.06666667 16.4283688,3.04680851 16.4170213,3.02695035 C15.5687943,2.00567376 14.5106383,1.2141844 13.3106383,0.695035461 C13.2765957,0.680851064 13.2453901,0.663829787 13.2113475,0.65248227 C13.0184397,0.573049645 12.822695,0.504964539 12.6212766,0.436879433 C12.5531915,0.414184397 12.4794326,0.388652482 12.4085106,0.365957447 C12.235461,0.314893617 12.0624113,0.272340426 11.8865248,0.229787234 C11.7900709,0.207092199 11.6907801,0.184397163 11.5914894,0.164539007 C11.5432624,0.156028369 11.5007092,0.141843972 11.4496454,0.130496454 C11.3163121,0.107801418 11.1886525,0.0964539007 11.0553191,0.0794326241 C10.964539,0.0709219858 10.8765957,0.0567375887 10.7829787,0.0453900709 C10.5617021,0.0226950355 10.3432624,0.0141843972 10.1219858,0.0113475177 C10.0822695,0.0113475177 10.0425532,0.00567375887 10.0028369,0.00567375887 C9.99716312,0.00567375887 9.98865248,0.0085106383 9.98014184,0.0085106383 C8.29219858,0.0085106383 6.64397163,0.519148936 5.23120567,1.51205674 C4.78014184,1.82695035 4.66950355,2.44822695 4.98723404,2.90212766 C5.29929078,3.35035461 5.92624113,3.46099291 6.37730496,3.14326241 C7.46950355,2.38014184 8.74042553,1.99148936 10.048227,2.00567376 C10.235461,2.00851064 10.422695,2.0141844 10.6042553,2.03404255 C10.6609929,2.03687943 10.7148936,2.04539007 10.7716312,2.05673759 C10.9219858,2.07659574 11.0695035,2.0964539 11.2198582,2.12765957 C11.2822695,2.13900709 11.3475177,2.15602837 11.4099291,2.17021277 C11.5574468,2.20425532 11.6992908,2.23829787 11.8382979,2.28085106 C11.8836879,2.29219858 11.9262411,2.30921986 11.9687943,2.32624113 C12.1333333,2.37730496 12.2893617,2.43404255 12.4453901,2.49929078 C12.4624113,2.50496454 12.4794326,2.51631206 12.493617,2.52198582 C13.4241135,2.92198582 14.2411348,3.53758865 14.8794326,4.30921986 C14.8822695,4.31205674 14.8822695,4.3177305 14.8879433,4.32340426 C15.7843972,5.41560284 16.3234043,6.81134752 16.3262411,8.32907801 L14.658156,8.32907801 L17.3248227,12.3234043 L19.9858156,8.32907801 L18.3234043,8.32907801 L18.3234043,8.32624113 Z" id="Shape"></path>
                    </g>
                </g>
            </g>
        </g>
    </g>
</svg>