<?xml version="1.0" encoding="UTF-8"?>
<svg width="14px" height="14px" viewBox="0 0 14 14" version="1.1" xmlns="http://www.w3.org/2000/svg" xmlns:xlink="http://www.w3.org/1999/xlink">
    <!-- Generator: Sketch 48.2 (47327) - http://www.bohemiancoding.com/sketch -->
    <title>Shape</title>
    <desc>Created with Sketch.</desc>
    <defs></defs>
    <g id="首页_效果图" stroke="none" stroke-width="1" fill="none" fill-rule="evenodd" transform="translate(-101.000000, -36.000000)">
        <g id="导航栏" transform="translate(0.000000, 20.000000)" fill="#D2D2D2">
            <g id="搜索" transform="translate(84.000000, 7.000000)">
                <path d="M26.6412236,17.4842767 L26.0318982,17.4842767 L25.8159348,17.2760263 C26.5718067,16.3967467 27.0268725,15.2552258 27.0268725,14.0134362 C27.0268725,11.2444768 24.7823957,9 22.0134362,9 C19.2444768,9 17,11.2444768 17,14.0134362 C17,16.7823957 19.2444768,19.0268725 22.0134362,19.0268725 C23.2552258,19.0268725 24.3967467,18.5718067 25.2760263,17.8159348 L25.4842767,18.0318982 L25.4842767,18.6412236 L29.3407662,22.49 L30.49,21.3407662 L26.6412236,17.4842767 L26.6412236,17.4842767 Z M22.0134362,17.4842767 C20.0929045,17.4842767 18.5425958,15.933968 18.5425958,14.0134362 C18.5425958,12.0929045 20.0929045,10.5425958 22.0134362,10.5425958 C23.933968,10.5425958 25.4842767,12.0929045 25.4842767,14.0134362 C25.4842767,15.933968 23.933968,17.4842767 22.0134362,17.4842767 L22.0134362,17.4842767 Z" id="Shape"></path>
            </g>
        </g>
    </g>
</svg>