<?xml version="1.0" encoding="UTF-8"?>
<svg width="36px" height="36px" viewBox="0 0 36 36" version="1.1" xmlns="http://www.w3.org/2000/svg" xmlns:xlink="http://www.w3.org/1999/xlink">
    <!-- Generator: Sketch 48.2 (47327) - http://www.bohemiancoding.com/sketch -->
    <title>播放</title>
    <desc>Created with Sketch.</desc>
    <defs></defs>
    <g id="首页_效果图" stroke="none" stroke-width="1" fill="none" fill-rule="evenodd" transform="translate(-301.000000, -381.000000)">
        <g id="内容" transform="translate(0.000000, 64.000000)" fill-rule="nonzero">
            <g id="今日免费" transform="translate(0.000000, 240.000000)">
                <g id="播放" transform="translate(301.000000, 77.000000)">
                    <path d="M18,2.45491071 C26.5741071,2.45491071 33.5450893,9.42991071 33.5450893,18 C33.5450893,26.5700893 26.5741071,33.5450893 18,33.5450893 C9.42589286,33.5450893 2.45491071,26.5741071 2.45491071,18 C2.45491071,9.42589286 9.42589286,2.45491071 18,2.45491071 Z M18,0 C8.05982143,2.85485921e-16 0,8.05982143 0,18 C0,27.9401786 8.05982143,36 18,36 C27.9401786,36 36,27.9401786 36,18 C36,8.05982143 27.9401786,2.85485921e-16 18,2.85485921e-16 Z" id="Shape" fill="#CCCCCC"></path>
                    <path d="M16.3356438,23.951213 C15.5598507,23.951213 15,23.2234071 15,22.2187861 L15,12.7324269 C15,11.7278059 15.5625167,11 16.3356438,11 C16.6102373,11 16.8901626,11.0933085 17.1620901,11.2768151 L24.2055452,16.0199947 C24.7120768,16.3590154 25,16.8908735 25,17.4756065 C25,18.0603395 24.7094108,18.5921976 24.2055452,18.9312183 L17.1620901,23.6743979 C16.8901626,23.8579046 16.6129032,23.951213 16.3356438,23.951213 Z" id="Shape" fill="#969494"></path>
                </g>
            </g>
        </g>
    </g>
</svg>