<?xml version="1.0" encoding="UTF-8"?>
<svg width="20px" height="20px" viewBox="0 0 20 20" version="1.1" xmlns="http://www.w3.org/2000/svg" xmlns:xlink="http://www.w3.org/1999/xlink">
    <!-- Generator: Sketch 48.2 (47327) - http://www.bohemiancoding.com/sketch -->
    <title>播放</title>
    <desc>Created with Sketch.</desc>
    <defs></defs>
    <g id="课程详情_效果图" stroke="none" stroke-width="1" fill="none" fill-rule="evenodd" transform="translate(-46.000000, -1492.000000)">
        <g id="下按钮" transform="translate(0.000000, 1477.000000)" fill="#FF595D" fill-rule="nonzero">
            <g id="播放" transform="translate(46.000000, 15.000000)">
                <path d="M10,1.36383929 C14.7633929,1.36383929 18.6361607,5.23883929 18.6361607,10 C18.6361607,14.7611607 14.7633929,18.6361607 10,18.6361607 C5.23660714,18.6361607 1.36383929,14.7633929 1.36383929,10 C1.36383929,5.23660714 5.23660714,1.36383929 10,1.36383929 Z M10,0 C4.47767857,1.58603289e-16 0,4.47767857 0,10 C0,15.5223214 4.47767857,20 10,20 C15.5223214,20 20,15.5223214 20,10 C20,4.47767857 15.5223214,1.58603289e-16 10,1.58603289e-16 Z" id="Shape"></path>
                <path d="M8.06473214,14.6473214 C7.41517857,14.6473214 6.94642857,14.125 6.94642857,13.4040179 L6.94642857,6.59598214 C6.94642857,5.875 7.41741071,5.35267857 8.06473214,5.35267857 C8.29464286,5.35267857 8.52901786,5.41964286 8.75669643,5.55133929 L14.6540179,8.95535714 C15.078125,9.19866071 15.3191964,9.58035714 15.3191964,10 C15.3191964,10.4196429 15.0758929,10.8013393 14.6540179,11.0446429 L8.75669643,14.4486607 C8.52901786,14.5803571 8.296875,14.6473214 8.06473214,14.6473214 Z M8.3125,6.87053571 L8.31026786,13.1294643 L13.7321429,10.0022321 L8.3125,6.87053571 Z" id="Shape"></path>
            </g>
        </g>
    </g>
</svg>