<?xml version="1.0" encoding="UTF-8"?>
<svg width="47px" height="67px" viewBox="0 0 47 67" version="1.1" xmlns="http://www.w3.org/2000/svg" xmlns:xlink="http://www.w3.org/1999/xlink">
    <!-- Generator: Sketch 48.2 (47327) - http://www.bohemiancoding.com/sketch -->
    <title>求职求学</title>
    <desc>Created with Sketch.</desc>
    <defs></defs>
    <g id="首页_效果图" stroke="none" stroke-width="1" fill="none" fill-rule="evenodd" transform="translate(-122.000000, -204.000000)">
        <g id="内容" transform="translate(0.000000, 64.000000)">
            <g id="分类" transform="translate(0.000000, 120.000000)">
                <g id="求职求学" transform="translate(121.333333, 20.000000)">
                    <text font-family="PingFangSC-Regular, PingFang SC" font-size="12" font-weight="normal" fill="#333333">
                        <tspan x="0" y="65">求职求学</tspan>
                    </text>
                    <circle id="Oval" fill="#3DD596" cx="23.6666667" cy="22" r="22"></circle>
                    <g id="领带" transform="translate(23.666667, 21.631579) scale(-1, 1) translate(-23.666667, -21.631579) translate(16.666667, 8.000000)" fill="#FFFFFF" fill-rule="nonzero">
                        <path d="M9.67633548,6.63157895 L4.97230606,6.63157895 C4.50190314,6.63157895 4.14910093,6.41052632 3.91389947,5.96842105 L1.56188477,1.54736841 C1.44428403,1.21578947 1.44428403,0.884210518 1.56188474,0.55263157 C1.67948546,0.221052623 2.26748916,0 2.62029136,0 L12.0283502,0 C12.3811524,0 12.8515553,0.221052623 13.0867568,0.55263157 C13.3219583,0.884210518 13.3219583,1.32631579 13.0867568,1.65789474 L10.7347421,6.07894738 C10.4995406,6.41052632 10.1467384,6.63157895 9.67633548,6.63157895 Z M5.6779105,4.42105264 L8.9707311,4.42105264 L10.1467385,2.21052631 L4.50190314,2.21052631 L5.6779105,4.42105264 Z" id="Shape"></path>
                        <path d="M12.8146207,21.3510102 C12.2329536,21.3510102 11.76762,21.012411 11.6512866,20.4480791 L8.39395114,6.67838029 L5.60194934,6.67838029 L2.34461389,20.4480791 C2.22828048,21.012411 1.53028002,21.4638765 0.948612992,21.3510101 C0.366945959,21.2381438 -0.0983876841,20.5609455 0.0179457334,19.9966135 L3.50794799,5.32398367 C3.6242814,4.75965178 4.08961502,4.42105263 4.67128208,4.42105263 L9.32461843,4.42105263 C9.90628546,4.42105263 10.3716191,4.75965178 10.4879525,5.32398369 L13.9779548,19.9966136 C14.0942882,20.5609455 13.745288,21.2381438 13.0472875,21.3510102 C12.9309541,21.3510102 12.9309541,21.3510102 12.8146207,21.3510102 Z" id="Shape"></path>
                        <path d="M7.00000001,27.2631579 C6.65000001,27.2631579 6.41666668,27.1473684 6.18333333,26.9157895 L0.350000007,21.1263158 C-0.116666669,20.6631579 -0.116666669,19.968421 0.350000007,19.5052632 C0.816666682,19.0421053 1.51666668,19.0421053 1.98333333,19.5052632 L7.00000001,24.4842105 L12.0166667,19.5052632 C12.4833334,19.0421053 13.1833334,19.0421053 13.65,19.5052632 C14.1166667,19.9684211 14.1166667,20.6631579 13.65,21.1263158 L7.81666668,26.9157895 C7.58333333,27.1473684 7.35000001,27.2631579 7.00000001,27.2631579 Z" id="Shape"></path>
                    </g>
                </g>
            </g>
        </g>
    </g>
</svg>