<?xml version="1.0" encoding="UTF-8"?>
<svg width="16px" height="14px" viewBox="0 0 16 14" version="1.1" xmlns="http://www.w3.org/2000/svg" xmlns:xlink="http://www.w3.org/1999/xlink">
    <!-- Generator: Sketch 48.2 (47327) - http://www.bohemiancoding.com/sketch -->
    <title>消息 信封 news</title>
    <desc>Created with Sketch.</desc>
    <defs></defs>
    <g id="我的_效果图" stroke="none" stroke-width="1" fill="none" fill-rule="evenodd" transform="translate(-25.000000, -352.000000)">
        <g id="内容" transform="translate(0.000000, 65.000000)" fill="#424242" fill-rule="nonzero">
            <g id="2" transform="translate(0.000000, 225.000000)">
                <g id="消息-信封-news" transform="translate(25.000000, 62.000000)">
                    <path d="M13.5384615,0 L2.46153846,0 C1.10769231,0 0,1.10769231 0,2.46153846 L0,11.0769231 C0,12.4307692 1.10769231,13.5384615 2.46153846,13.5384615 L13.5384615,13.5384615 C14.8923077,13.5384615 16,12.4307692 16,11.0769231 L16,2.46153846 C16,1.10769231 14.8923077,0 13.5384615,0 Z M2.46153846,1.23076923 L13.5384615,1.23076923 C13.6615385,1.23076923 13.7723077,1.26769231 13.8830769,1.30461538 C13.8215385,1.32923077 13.7723077,1.36615385 13.7230769,1.41538462 L8,7.12615385 L2.27692308,1.40307692 C2.22769231,1.35384615 2.17846154,1.32923077 2.11692308,1.30461538 C2.22769231,1.26769231 2.33846154,1.23076923 2.46153846,1.23076923 Z M14.7692308,11.0769231 C14.7692308,11.7538462 14.2153846,12.3076923 13.5384615,12.3076923 L2.46153846,12.3076923 C1.78461538,12.3076923 1.23076923,11.7538462 1.23076923,11.0769231 L1.23076923,2.46153846 C1.23076923,2.33846154 1.26769231,2.22769231 1.30461538,2.11692308 C1.32923077,2.17846154 1.35384615,2.22769231 1.40307692,2.27692308 L7.53230769,8.40615385 C7.65538462,8.52923077 7.82769231,8.59076923 8,8.57846154 C8.17230769,8.59076923 8.34461538,8.52923077 8.46769231,8.40615385 L14.5969231,2.27692308 C14.6461538,2.22769231 14.6707692,2.17846154 14.7076923,2.11692308 C14.7323077,2.22769231 14.7692308,2.33846154 14.7692308,2.46153846 L14.7692308,11.0769231 Z" id="Shape"></path>
                </g>
            </g>
        </g>
    </g>
</svg>