<?xml version="1.0" encoding="UTF-8"?>
<svg width="48px" height="67px" viewBox="0 0 48 67" version="1.1" xmlns="http://www.w3.org/2000/svg" xmlns:xlink="http://www.w3.org/1999/xlink">
    <!-- Generator: Sketch 48.2 (47327) - http://www.bohemiancoding.com/sketch -->
    <title>经营管理</title>
    <desc>Created with Sketch.</desc>
    <defs></defs>
    <g id="首页_效果图" stroke="none" stroke-width="1" fill="none" fill-rule="evenodd" transform="translate(-208.000000, -204.000000)">
        <g id="内容" transform="translate(0.000000, 64.000000)">
            <g id="分类" transform="translate(0.000000, 120.000000)">
                <g id="经营管理" transform="translate(207.666667, 20.000000)">
                    <text font-family="PingFangSC-Regular, PingFang SC" font-size="12" font-weight="normal" fill="#333333">
                        <tspan x="0" y="65">经营管理</tspan>
                    </text>
                    <circle id="Oval-Copy" fill="#FC6B6B" cx="22.3333333" cy="22" r="22"></circle>
                    <g id="经营" transform="translate(9.333333, 10.000000)" fill="#FFFFFF" fill-rule="nonzero">
                        <path d="M23.9849108,2.36648854 L14.1502058,2.36648854 L14.1502058,1.15635235 C14.1502058,0.515428374 13.633059,0 13,0 C12.3624829,0 11.8497942,0.51991036 11.8497942,1.15635235 L11.8497942,2.36200655 L2.010631,2.36200655 C1.47565158,2.36200655 0.971879287,2.57265989 0.592935528,2.9491467 C0.218449931,3.32563351 0,3.84554387 0,4.37890019 L0,18.5912774 C0,19.7072918 0.905006859,20.612653 2.01508916,20.612653 L11.8497942,20.612653 L11.8497942,20.917428 L8.53737997,23.7141872 L8.52846365,23.7186692 C8.05589849,24.1354939 7.99794239,24.8436476 8.40363512,25.3366661 C8.80486968,25.8162386 9.52709191,25.8879504 10.0130316,25.4935356 L12.8573388,23.0956732 L15.9958848,25.7400448 L16.0003429,25.7445268 C16.2098765,25.9148423 16.4684499,26 16.7225652,26 C17.0524691,26 17.3823731,25.8610584 17.6097394,25.5876573 C18.0109739,25.0991208 17.9530178,24.3864851 17.4804527,23.9696604 L14.1502058,21.1594553 L14.1502058,20.621617 L23.989369,20.621617 C24.5154321,20.621617 25.0325789,20.4064816 25.4070645,20.0344768 C25.7904664,19.653508 26,19.1470436 26,18.6047233 L26,4.38786416 C26,3.27184968 25.0949931,2.36648854 23.9849108,2.36648854 Z M23.6951303,18.3044303 L2.30486968,18.3044303 L2.30486968,4.68367523 L23.6995885,4.68367523 L23.6995885,18.3044303 L23.6951303,18.3044303 Z M5.26954733,13.7372867 C5.67524005,14.2168592 6.40192044,14.279607 6.88340192,13.8807102 L10.4855967,10.8419238 L14.6851852,14.3871746 C14.8501372,14.5261162 15.0462963,14.6112739 15.2558299,14.6381658 C15.313786,14.6471298 15.3717421,14.6516118 15.4252401,14.6516118 C15.6927298,14.6516118 15.9513032,14.5574901 16.1608368,14.3826926 L20.4941701,10.7253922 C20.9711934,10.3130495 21.0336077,9.58696776 20.6323731,9.0984313 L20.627915,9.09394932 C20.2222222,8.61437683 19.4955418,8.55162903 19.0140604,8.95052577 L15.4207819,11.9803482 L11.2167353,8.43957938 L11.2122771,8.4350974 C10.9091221,8.18410619 10.5078875,8.10791243 10.1378601,8.22892605 C9.99074074,8.27374591 9.85253772,8.34545768 9.73662551,8.44854335 L5.40329218,12.1058438 C4.92626886,12.5137045 4.8638546,13.2442682 5.26954733,13.7372867 Z" id="Shape"></path>
                    </g>
                </g>
            </g>
        </g>
    </g>
</svg>