<?xml version="1.0" encoding="UTF-8"?>
<svg width="48px" height="67px" viewBox="0 0 48 67" version="1.1" xmlns="http://www.w3.org/2000/svg" xmlns:xlink="http://www.w3.org/1999/xlink">
    <!-- Generator: Sketch 48.2 (47327) - http://www.bohemiancoding.com/sketch -->
    <title>1</title>
    <desc>Created with Sketch.</desc>
    <defs></defs>
    <g id="首页_效果图" stroke="none" stroke-width="1" fill="none" fill-rule="evenodd" transform="translate(-35.000000, -204.000000)">
        <g id="内容" transform="translate(0.000000, 64.000000)">
            <g id="分类" transform="translate(0.000000, 120.000000)">
                <g id="1" transform="translate(35.000000, 20.000000)">
                    <circle id="Oval" fill="#2FBEF9" cx="25" cy="22" r="22"></circle>
                    <path d="M25.9883041,29.8240469 L25.9883041,32.3401759 L30.3976608,32.3401759 C30.9298246,32.3401759 31.3859649,32.7976539 31.3859649,33.3313783 C31.3859649,33.8651026 30.9298246,34.3225806 30.3976608,34.3225806 L19.6783626,34.3225806 C19.1461988,34.3225806 18.6900585,33.8651026 18.6900585,33.3313783 C18.6900585,32.7976539 19.1461988,32.3401759 19.6783626,32.3401759 L24.0116959,32.3401759 L24.0116959,29.8240469 C21.1988304,29.5190616 18.6900585,27.9178885 17.1695907,25.5542522 C15.8011696,25.4017596 14.5847953,24.7917888 13.6725146,23.8768328 C12.6081872,22.8093842 12,21.3607038 12,19.7595308 L12,14.1935484 C12,13.659824 12.4561404,13.202346 12.9883041,13.202346 L15.6491228,13.202346 L15.6491228,10.9912024 C15.6491228,10.457478 16.1052632,10 16.6374269,10 L33.2865497,10 C33.8187134,10 34.2748538,10.457478 34.2748538,10.9912024 L34.2748538,13.202346 L37.0116959,13.202346 C37.5438596,13.202346 38,13.659824 38,14.1935484 L38,19.6832844 C38,21.2844575 37.3918129,22.7331378 36.3274854,23.8005865 L36.251462,23.8768328 C35.3391813,24.7917888 34.122807,25.3255132 32.8304093,25.4780059 C31.3099415,27.9178886 28.8011696,29.5190616 25.9883041,29.8240469 Z M32.2982456,11.9824047 L17.7017544,11.9824047 L17.7017544,14.1935484 L17.7017544,20.5219941 L17.7017544,20.5982405 C17.7017544,21.7419355 18.005848,22.8856305 18.5380117,23.8768329 C19.754386,26.2404693 22.3391812,27.7653959 25,27.7653959 C27.7368421,27.7653959 30.245614,26.2404693 31.4619883,23.8768329 C31.994152,22.8856305 32.2982456,21.7419355 32.2982456,20.6744869 L32.2982456,20.5982405 L32.2982456,20.5219942 L32.2982456,14.1935484 L32.2982456,11.9824047 Z M34.3508772,15.1847508 L34.3508772,20.5219942 L34.3508772,20.5982405 L34.3508772,20.6744869 C34.3508772,21.5131965 34.1988304,22.3519062 33.9707602,23.1906159 C34.2748538,23.0381232 34.6549707,22.8093842 34.8830409,22.5043989 L34.9590643,22.4281525 C35.6432748,21.7419355 36.0994152,20.7507332 36.0994152,19.7595308 L36.0994152,15.2609971 L34.3508772,15.2609971 L34.3508772,15.1847508 Z M16.0292398,23.1906158 C15.8011696,22.3519062 15.6491228,21.5131965 15.6491228,20.6744868 L15.6491228,20.5982405 L15.6491228,20.5219942 L15.6491228,15.1847508 L13.9766082,15.1847508 L13.9766082,19.6832844 C13.9766082,20.7507331 14.4327485,21.6656891 15.116959,22.3519061 C15.3450293,22.7331378 15.7251462,22.9618768 16.0292398,23.1906158 Z" id="Shape" stroke="#FFFFFF" stroke-width="0.4" fill="#FFFFFF" fill-rule="nonzero"></path>
                    <text id="职业技能" font-family="PingFangSC-Regular, PingFang SC" font-size="12" font-weight="normal" fill="#333333">
                        <tspan x="0" y="65">职业技能</tspan>
                    </text>
                </g>
            </g>
        </g>
    </g>
</svg>