<?xml version="1.0" encoding="UTF-8"?>
<svg width="16px" height="18px" viewBox="0 0 16 18" version="1.1" xmlns="http://www.w3.org/2000/svg" xmlns:xlink="http://www.w3.org/1999/xlink">
    <!-- Generator: Sketch 48.2 (47327) - http://www.bohemiancoding.com/sketch -->
    <title>设置</title>
    <desc>Created with Sketch.</desc>
    <defs></defs>
    <g id="我的_效果图" stroke="none" stroke-width="1" fill="none" fill-rule="evenodd" transform="translate(-25.000000, -462.000000)">
        <g id="内容" transform="translate(0.000000, 65.000000)" fill="#12202E" fill-rule="nonzero">
            <g id="3" transform="translate(0.000000, 384.000000)">
                <g id="设置" transform="translate(25.000000, 13.000000)">
                    <path d="M8,17.3574661 C7.65248869,17.3574661 7.18914027,17.3574661 6.84162896,17.241629 C6.26244344,17.1257919 5.91493213,16.7782805 5.68325792,16.3149321 C5.45158371,15.6199095 5.1040724,15.1565611 4.52488688,14.8090498 C3.94570136,14.4615385 3.36651584,14.3457014 2.67149321,14.4615385 C2.2081448,14.5773756 1.62895928,14.4615385 1.28144796,13.99819 C0.818099548,13.4190045 0.354751131,12.7239819 0.123076923,11.9131222 C-0.108597285,11.4497738 0.007239819,10.8705882 0.354751131,10.5230769 C0.818099548,9.9438914 1.04977376,9.36470588 1.04977376,8.66968326 C1.04977376,7.97466063 0.818099548,7.39547511 0.354751131,6.81628959 C0.007239819,6.46877828 -0.108597285,5.88959276 0.123076923,5.42624434 C0.470588235,4.73122172 0.818099548,4.0361991 1.28144796,3.34117647 C1.62895928,2.87782805 2.2081448,2.76199095 2.67149321,2.87782805 C3.36651584,2.99366516 3.94570136,2.87782805 4.52488688,2.53031674 C5.1040724,2.18280543 5.56742081,1.71945701 5.68325792,1.02443439 C5.91493213,0.561085973 6.26244344,0.0977375566 6.84162896,0.0977375566 C7.65248869,-0.0180995475 8.34751131,-0.0180995475 9.15837104,0.0977375566 C9.73755656,0.0977375566 10.0850679,0.561085973 10.3167421,1.02443439 C10.5484163,1.71945701 10.8959276,2.18280543 11.4751131,2.53031674 C12.0542986,2.87782805 12.6334842,2.99366516 13.3285068,2.87782805 C13.7918552,2.76199095 14.3710407,2.87782805 14.718552,3.34117647 C15.1819005,3.92036199 15.6452489,4.61538462 15.8769231,5.42624434 C16.1085973,5.88959276 15.9927602,6.46877828 15.6452489,6.9321267 C15.1819005,7.39547511 14.9502262,7.97466063 14.9502262,8.66968326 C14.9502262,9.36470588 15.1819005,9.9438914 15.6452489,10.5230769 C15.9927602,10.8705882 16.1085973,11.4497738 15.8769231,12.0289593 C15.5294118,12.7239819 15.1819005,13.4190045 14.718552,14.1140271 C14.3710407,14.4615385 13.7918552,14.5773756 13.3285068,14.4615385 C12.7493213,14.3457014 12.0542986,14.4615385 11.4751131,14.8090498 C10.8959276,15.1565611 10.4325792,15.7357466 10.3167421,16.3149321 C10.200905,16.7782805 9.73755656,17.241629 9.15837104,17.241629 C8.81085973,17.3574661 8.34751131,17.3574661 8,17.3574661 Z M3.25067873,13.3031674 C3.94570136,13.3031674 4.52488688,13.5348416 5.1040724,13.7665158 C5.91493213,14.2298643 6.49411765,15.040724 6.84162896,15.9674208 C6.84162896,16.0832579 6.95746606,16.0832579 7.07330317,16.0832579 C7.76832579,16.199095 8.46334842,16.199095 9.04253394,16.0832579 C9.15837104,16.0832579 9.15837104,15.9674208 9.15837104,15.9674208 C9.39004525,15.040724 10.0850679,14.2298643 10.8959276,13.7665158 C11.7067873,13.3031674 12.6334842,13.1873303 13.560181,13.3031674 C13.6760181,13.3031674 13.6760181,13.3031674 13.7918552,13.1873303 C14.2552036,12.6081448 14.6027149,12.0289593 14.8343891,11.4497738 L14.8343891,11.2180995 C14.1393665,10.5230769 13.7918552,9.59638009 13.7918552,8.66968326 C13.7918552,7.74298643 14.1393665,6.81628959 14.8343891,6.12126697 C14.9502262,6.00542986 14.9502262,5.88959276 14.8343891,5.88959276 C14.6027149,5.19457014 14.2552036,4.61538462 13.7918552,4.0361991 C13.7918552,3.92036199 13.6760181,3.92036199 13.560181,3.92036199 C12.6334842,4.1520362 11.7067873,4.0361991 10.8959276,3.57285068 C10.0850679,3.10950226 9.50588235,2.29864253 9.15837104,1.3719457 C9.15837104,1.2561086 9.04253394,1.2561086 9.04253394,1.2561086 C8.34751131,1.14027149 7.65248869,1.14027149 7.07330317,1.2561086 C6.95746606,1.2561086 6.84162896,1.2561086 6.84162896,1.3719457 C6.49411765,2.29864253 5.91493213,3.10950226 5.1040724,3.57285068 C4.29321267,4.0361991 3.36651584,4.1520362 2.439819,3.92036199 C2.3239819,3.92036199 2.2081448,4.0361991 2.2081448,4.0361991 C1.74479638,4.61538462 1.39728507,5.19457014 1.16561086,5.77375566 L1.16561086,6.00542986 C1.86063348,6.81628959 2.2081448,7.74298643 2.2081448,8.66968326 C2.2081448,9.59638009 1.86063348,10.5230769 1.16561086,11.2180995 C1.04977376,11.3339367 1.04977376,11.3339367 1.16561086,11.4497738 C1.39728507,12.1447964 1.74479638,12.7239819 2.2081448,13.3031674 C2.2081448,13.4190045 2.3239819,13.4190045 2.439819,13.4190045 C2.67149321,13.3031674 3.01900452,13.3031674 3.25067873,13.3031674 Z" id="Shape"></path>
                    <path d="M8,12.1447964 C6.14660633,12.1447964 4.64072398,10.638914 4.64072398,8.66968326 C4.64072398,6.70045249 6.14660633,5.19457014 8,5.19457014 C9.85339367,5.19457014 11.359276,6.70045249 11.359276,8.66968326 C11.359276,10.638914 9.85339367,12.1447964 8,12.1447964 Z M8,6.35294118 C6.84162896,6.35294118 5.79909502,7.39547511 5.79909502,8.66968326 C5.79909502,9.9438914 6.84162896,10.9864253 8,10.9864253 C9.15837104,10.9864253 10.200905,9.9438914 10.200905,8.66968326 C10.200905,7.39547511 9.15837104,6.35294118 8,6.35294118 Z" id="Shape"></path>
                </g>
            </g>
        </g>
    </g>
</svg>